<?xml version="1.0" encoding="utf-8"?>
<!-- Generator: Adobe Illustrator 25.2.0, SVG Export Plug-In . SVG Version: 6.00 Build 0)  -->
<svg version="1.1" id="Layer_1" xmlns="http://www.w3.org/2000/svg" xmlns:xlink="http://www.w3.org/1999/xlink" x="0px" y="0px"
	 viewBox="0 0 603.5 618.9" style="enable-background:new 0 0 603.5 618.9;" xml:space="preserve">
<style type="text/css">
	.st0{fill:#05252D;}
</style>
<path class="st0" d="M237.2,216.4h25.5l7.6,18.4c4.8-6.3,9.9-11.2,15.3-14.7s11.7-5.3,18.7-5.3c3.9,0,7.2,0.4,9.9,1.1V250
	c-7.8-0.7-12.5-1.1-14.1-1.1c-6.4,0-12,1.1-16.6,3.1c-4.6,2.1-9,5.4-13.2,9.8v74.8h-33.1V216.4z M332.5,197.5
	c-0.8-0.8-1.2-1.9-1.2-3.2v-22c0-3.1,1.6-4.7,4.7-4.7h25.5c1.3,0,2.4,0.4,3.1,1.3c0.7,0.9,1.1,2,1.1,3.4v22c0,3-1.4,4.5-4.3,4.5H336
	C334.5,198.7,333.3,198.3,332.5,197.5z M332,216.4h33.1v120.3H332V216.4z M472.9,216.7l23.4,2.6v0
	C489.4,218.4,481.6,217.5,472.9,216.7z M496.4,219.3l-23.4-2.6l0,0c-2.4-0.2-4.9-0.4-7.4-0.7c-1.2-0.1-2.4-0.2-3.6-0.3
	c-10.3-0.8-19.9-1.2-28.9-1.2c-10.8,0-19.5,2-26.1,5.9c-6.6,4-11.6,10.5-14.9,19.6c-3.3,9.1-4.9,21.3-4.9,36.5
	c0,14.5,1.4,26.2,4.2,35.1c2.8,8.9,7.4,15.5,13.8,19.8c6.4,4.3,15.1,6.5,26,6.5c5.2,0,10.8-1.2,16.6-3.6c5.3-2.2,10.1-4.9,14.3-8.2
	v42.5h37.4V219.7L496.4,219.3z M463,304.7c-0.4,0.2-0.8,0.4-1.2,0.7c-2.8,1.5-6,2.9-9.7,4c-4.3,1.3-8.1,2-11.5,2c-5.1,0-9.1-1-12-3
	c-2.9-2-5-5.6-6.4-10.8c-1.3-5.1-2-12.5-2-22.1c0-12.7,1.7-21.9,5.2-27.6c3.4-5.7,9.3-8.5,17.7-8.5H463V304.7z M429.1,106.9H174.4
	c-38.5,0-70.2,31.4-70.2,70.2v159.6h31.3l5.4-11.4c5.1,4,10.3,7.2,15.8,9.4c5.5,2.2,11.8,3.4,19.2,3.4c13.9,0,24.2-5,30.9-14.9
	c6.7-9.9,10.1-25.1,10.1-45.4c0-15.2-1.4-27.4-4.3-36.6c-2.8-9.2-7.4-15.9-13.6-20.2s-14.4-6.4-24.8-6.4c-5.1,0-10.6,1-16.6,2.9
	c-5.7,1.8-11,4.1-16,6.7v-47.2c0-18,14.8-32.7,32.7-32.7h254.7c18.1,0,32.7,14.8,32.7,32.7v0.8l37.4,4v-4.8
	C499.3,138.4,467.8,106.9,429.1,106.9z M163.5,241.2c4,0,7.5,0.8,10.4,2.5c2.9,1.6,5.3,5,7,10.2c1.8,5.2,2.7,12.6,2.7,22.3
	c0,12.7-1.8,21.7-5.3,26.9c-3.5,5.2-8.5,7.8-14.9,7.8c-7.6,0-14.9-1.8-21.8-5.4c-0.3-0.1-0.5-0.3-0.8-0.4V248
	c0.3-0.2,0.5-0.3,0.8-0.4C149.2,243.3,156.5,241.2,163.5,241.2z M305.7,430.3h193.5v-36.7H269.9l-1,41.2L183,362.7h-78.7v36.7h65.3
	L303.7,512L305.7,430.3z"/>
</svg>
