<?xml version="1.0" encoding="UTF-8"?>
<svg id="Layer_2" data-name="Layer 2" xmlns="http://www.w3.org/2000/svg" viewBox="0 0 2033.74 1253.06">
  <defs>
    <style>
      .cls-1 {
        fill: #f3f8e8;
      }
    </style>
  </defs>
  <g id="Layer_1-2" data-name="Layer 1">
    <g>
      <path class="cls-1" d="M992.23,740.39c11.89,18.02,23.35,36.36,34.37,54.98,225.5-263.36,573.01-409.57,934.95-367.78l-43.68,212.31c-37.58-13.41-76.54-24.39-116.73-32.65-283.49-58.33-563.06,30.55-759.4,214.39,73.82,131.58,125.93,277.01,151.42,431.4-30.92-148.63-92.82-285.9-178.65-404.75-4.87-6.76-9.83-13.46-14.88-20.1-11.24-14.85-22.88-29.39-34.89-43.61-5.99-7.12-12.09-14.16-18.3-21.13-195.11-219.35-479.53-357.53-796.21-357.53-50.98,0-101.14,3.59-150.23,10.51V147.12c402.36,35.48,753.25,250.24,972.28,563.9C1176.67,318.5,1571.21,40.79,2033.74,0v269.33c-49.08-6.93-99.25-10.52-150.23-10.52-372.84,0-700.95,191.53-891.28,481.58Z"/>
      <path class="cls-1" d="M1192.19,1253.03c-55.77-128.98-141.41-239.49-246.69-324.78-3.52-2.85-7.07-5.68-10.64-8.45-9.27-7.29-18.69-14.38-28.25-21.25-3.8-2.76-7.63-5.46-11.49-8.14-186.12-129.46-422.93-185.33-662.52-136.04-40.19,8.28-79.15,19.25-116.73,32.66l-43.68-212.33c314.25-36.27,617.59,69.16,839.67,269.93h0c4.64,4.18,9.23,8.41,13.79,12.69,10.4,9.73,20.62,19.68,30.61,29.83,4.05,4.09,8.07,8.23,12.03,12.4,95.47,99.97,172.38,219.31,223.89,353.47Z"/>
    </g>
  </g>
</svg>