<?xml version="1.0" encoding="UTF-8"?>
<svg id="Layer_2" data-name="Layer 2" xmlns="http://www.w3.org/2000/svg" viewBox="0 0 2816.97 1800.43">
  <defs>
    <style>
      .cls-1 {
        fill: #f3f8e8;
      }
    </style>
  </defs>
  <g id="Layer_1-2" data-name="Layer 1">
    <g>
      <g>
        <path class="cls-1" d="M1394.1,847.08c89.9,94.13,162.33,206.51,210.84,332.85-52.52-121.46-133.18-225.52-232.3-305.84-3.33-2.69-6.68-5.35-10.03-7.96-8.72-6.86-17.61-13.54-26.59-20.01-3.59-2.59-7.2-5.13-10.83-7.66-175.27-121.91-398.26-174.53-623.87-128.1-37.86,7.78-74.54,18.13-109.93,30.76l-41.13-199.95c295.91-34.15,581.57,65.13,790.69,254.2,4.37,3.93,8.7,7.92,12.99,11.95,9.79,9.16,19.41,18.53,28.82,28.1,3.81,3.85,7.6,7.74,11.33,11.67Z"/>
        <path class="cls-1" d="M1416.64,697.2c11.19,16.97,21.98,34.23,32.37,51.78,212.35-248,539.58-385.69,880.41-346.32l-41.13,199.91c-35.39-12.61-72.07-22.96-109.93-30.74-266.95-54.93-530.22,28.78-715.09,201.9,69.51,123.89,118.58,260.84,142.58,406.22-29.12-139.95-87.41-269.22-168.23-381.14-4.59-6.38-9.26-12.67-14.02-18.93-10.57-13.98-21.54-27.67-32.85-41.07-5.64-6.7-11.39-13.34-17.23-19.89-183.73-206.55-451.57-336.68-749.78-336.68-47.99,0-95.23,3.39-141.46,9.89v-253.6c378.89,33.41,709.31,235.65,915.56,531C1590.32,299.92,1961.83,38.4,2397.4,0v253.62c-46.22-6.52-93.47-9.91-141.46-9.91-351.1,0-660.06,180.36-839.3,453.49Z"/>
      </g>
      <g>
        <path class="cls-1" d="M69.13,1538.15v-69.13L0,1343.03h34.29l50.45,93.38h1.39l50.45-93.38h33.73l-69.13,125.99v69.13h-32.06Z"/>
        <path class="cls-1" d="M276.24,1541.5c-18.95,0-36.19-4.41-51.71-13.24-15.52-8.82-27.73-20.95-36.65-36.38-8.92-15.42-13.38-32.52-13.38-51.29s4.46-35.86,13.38-51.29c8.92-15.42,21.14-27.55,36.65-36.38,15.51-8.82,32.75-13.24,51.71-13.24s36.19,4.42,51.71,13.24c15.51,8.83,27.73,20.95,36.65,36.38,8.92,15.43,13.38,32.52,13.38,51.29s-4.46,35.87-13.38,51.29c-8.92,15.43-21.14,27.55-36.65,36.38-15.52,8.83-32.75,13.24-51.71,13.24ZM276.24,1510.84c13,0,24.71-3.02,35.12-9.06,10.41-6.04,18.54-14.36,24.39-24.95,5.85-10.59,8.78-22.67,8.78-36.24s-2.93-25.64-8.78-36.24c-5.85-10.59-13.98-18.91-24.39-24.95-10.41-6.04-22.12-9.06-35.12-9.06s-24.72,3.02-35.12,9.06c-10.41,6.04-18.54,14.36-24.39,24.95-5.85,10.59-8.78,22.67-8.78,36.24s2.93,25.64,8.78,36.24c5.85,10.59,13.98,18.91,24.39,24.95,10.4,6.04,22.11,9.06,35.12,9.06Z"/>
        <path class="cls-1" d="M488.92,1541.5c-16.17,0-30.2-3.3-42.09-9.9-11.89-6.59-21-16.07-27.32-28.43-6.32-12.36-9.48-26.99-9.48-43.9v-116.24h32.06v116.24c0,10.97,1.81,20.3,5.44,28.01,3.62,7.71,8.96,13.57,16.03,17.56,7.06,4,15.51,5.99,25.37,5.99,14.86,0,26.34-4.5,34.42-13.52,8.08-9.01,12.13-21.69,12.13-38.05v-116.24h32.06v116.24c0,16.91-3.16,31.55-9.48,43.9-6.32,12.36-15.38,21.84-27.18,28.43-11.8,6.59-25.78,9.9-41.95,9.9Z"/>
        <path class="cls-1" d="M656.72,1538.15v-164.46h-62.72v-30.66h157.49v30.66h-62.72v164.46h-32.06Z"/>
        <path class="cls-1" d="M782.15,1538.15v-195.12h32.06v195.12h-32.06ZM795.81,1454.53v-30.66h129.34v30.66h-129.34ZM908.98,1538.15v-195.12h32.06v195.12h-32.06Z"/>
        <path class="cls-1" d="M1058.11,1538.15v-195.12h80.28c13.94,0,26.34,2.65,37.21,7.94s19.32,12.68,25.37,22.16c6.04,9.48,9.06,20.35,9.06,32.61s-3.02,23.14-9.06,32.61c-6.04,9.48-14.49,16.86-25.37,22.16-10.87,5.3-23.28,7.94-37.21,7.94h-67.18v-30.66h67.18c8.17,0,15.14-1.21,20.91-3.62,5.76-2.41,10.08-6.04,12.96-10.87,2.88-4.83,4.32-10.68,4.32-17.56,0-10.41-3.25-18.35-9.76-23.83-6.51-5.48-15.98-8.22-28.43-8.22h-48.22v164.46h-32.06ZM1176.85,1538.15l-56.59-84.46h36.24l57.7,84.46h-37.35Z"/>
        <path class="cls-1" d="M1250.44,1538.15v-195.12h137.98v30.66h-105.92v133.8h107.32v30.66h-139.37ZM1264.1,1454.53v-30.66h108.99v30.66h-108.99Z"/>
        <path class="cls-1" d="M1492.39,1541.5c-26.02,0-46.13-5.39-60.35-16.17-14.22-10.78-21.79-26.48-22.72-47.11h34.29c.37,11.15,4.64,19.61,12.82,25.37,8.17,5.76,20.16,8.64,35.96,8.64,11.52,0,21-2.23,28.43-6.69,7.43-4.46,11.15-10.78,11.15-18.95,0-6.5-2.09-11.8-6.27-15.89-4.18-4.08-9.39-7.34-15.61-9.76-6.23-2.41-14.91-5.11-26.06-8.08-13.94-3.71-25.37-7.43-34.29-11.15-8.92-3.71-16.49-9.34-22.72-16.86-6.23-7.53-9.34-17.42-9.34-29.69,0-10.77,2.97-20.39,8.92-28.85,5.94-8.45,14.26-15,24.95-19.65,10.68-4.64,23.09-6.97,37.21-6.97,22.67,0,40.56,5.02,53.66,15.05,13.1,10.04,20.3,24.25,21.6,42.65h-34.29c-.75-9.66-4.42-16.82-11.01-21.46-6.6-4.64-16.31-6.97-29.13-6.97-11.71,0-21.05,2.23-28.01,6.69-6.97,4.46-10.45,10.5-10.45,18.12,0,6.32,2.09,11.52,6.27,15.61,4.18,4.09,9.38,7.3,15.61,9.62,6.22,2.33,14.73,4.97,25.5,7.94,14.31,3.72,25.88,7.43,34.7,11.15,8.82,3.72,16.4,9.39,22.72,17,6.32,7.62,9.48,17.66,9.48,30.1,0,11.15-3.11,21-9.34,29.55-6.23,8.55-14.87,15.15-25.92,19.79-11.06,4.64-23.65,6.97-37.77,6.97Z"/>
        <path class="cls-1" d="M1603.05,1538.15v-195.12h137.98v30.66h-105.92v133.8h107.32v30.66h-139.37ZM1616.71,1454.53v-30.66h108.99v30.66h-108.99Z"/>
        <path class="cls-1" d="M1760.54,1538.15l72.75-195.12h38.47l72.47,195.12h-32.61l-58.82-161.67h-1.39l-58.81,161.67h-32.06ZM1792.87,1490.77l9.48-29.27h100.07l9.48,29.27h-119.02Z"/>
        <path class="cls-1" d="M1973.49,1538.15v-195.12h80.28c13.94,0,26.34,2.65,37.21,7.94s19.33,12.68,25.37,22.16c6.04,9.48,9.06,20.35,9.06,32.61s-3.02,23.14-9.06,32.61c-6.04,9.48-14.5,16.86-25.37,22.16-10.87,5.3-23.27,7.94-37.21,7.94h-67.18v-30.66h67.18c8.17,0,15.14-1.21,20.91-3.62,5.76-2.41,10.08-6.04,12.96-10.87,2.88-4.83,4.32-10.68,4.32-17.56,0-10.41-3.25-18.35-9.76-23.83-6.51-5.48-15.98-8.22-28.43-8.22h-48.22v164.46h-32.06ZM2092.24,1538.15l-56.58-84.46h36.24l57.7,84.46h-37.35Z"/>
        <path class="cls-1" d="M2250.84,1541.5c-18.96,0-36.19-4.41-51.71-13.24-15.52-8.82-27.74-20.95-36.66-36.38-8.92-15.42-13.38-32.52-13.38-51.29s4.46-35.86,13.38-51.29c8.92-15.42,21.14-27.55,36.66-36.38,15.51-8.82,32.75-13.24,51.71-13.24,15.61,0,29.83,3.07,42.65,9.2,12.82,6.13,23.55,14.54,32.2,25.23,8.64,10.69,14.82,22.63,18.54,35.82h-34.29c-3.16-7.99-7.57-14.96-13.24-20.91-5.67-5.95-12.36-10.54-20.07-13.8-7.71-3.25-16.31-4.88-25.78-4.88-13.01,0-24.72,3.02-35.12,9.06-10.41,6.04-18.54,14.36-24.39,24.95-5.85,10.59-8.78,22.67-8.78,36.24s2.93,25.64,8.78,36.24c5.85,10.59,13.98,18.91,24.39,24.95,10.41,6.04,22.11,9.06,35.12,9.06,9.85,0,18.82-1.81,26.9-5.43,8.08-3.62,14.96-8.64,20.63-15.05,5.67-6.41,9.99-13.7,12.96-21.88h34.29c-3.9,14.31-10.31,27-19.23,38.05-8.92,11.06-19.89,19.65-32.89,25.78-13.01,6.13-27.23,9.2-42.65,9.2Z"/>
        <path class="cls-1" d="M2380.46,1538.15v-195.12h32.06v195.12h-32.06ZM2394.12,1454.53v-30.66h129.34v30.66h-129.34ZM2507.29,1538.15v-195.12h32.06v195.12h-32.06Z"/>
        <path class="cls-1" d="M2693.48,1541.5c-11.15,0-20.91-2.23-29.27-6.69s-14.77-10.45-19.23-17.98c-4.46-7.53-6.69-15.75-6.69-24.67,0-6.69,1.02-12.77,3.07-18.26,2.04-5.48,5.44-11.05,10.17-16.72,4.74-5.67,11.47-12.12,20.21-19.37l18.68-15.61,15.33,23.14-18.4,15.89c-5.95,5.21-10.04,9.8-12.26,13.8-2.23,4-3.34,8.97-3.34,14.91s2.13,10.69,6.41,14.77c4.27,4.09,9.94,6.13,17,6.13,6.32,0,12.03-1.44,17.14-4.32,5.11-2.88,10.82-7.85,17.14-14.91l11.71-13.38,19.79,22.3-13.66,15.05c-8.74,9.66-17.19,16.4-25.37,20.21-8.18,3.81-17.66,5.71-28.43,5.71ZM2668.12,1416.06c-4.46-5.02-7.9-10.17-10.31-15.47-2.42-5.3-3.62-11.1-3.62-17.42,0-7.99,1.95-15.28,5.85-21.88,3.9-6.59,9.71-11.85,17.42-15.75,7.71-3.9,17.14-5.85,28.29-5.85,10.03,0,18.68,1.91,25.92,5.71,7.25,3.81,12.73,8.97,16.45,15.47,3.71,6.51,5.57,13.57,5.57,21.18s-1.53,14.22-4.6,20.35c-3.07,6.13-8.5,12.54-16.31,19.23l-22.02,19.23-15.61-22.86,15.89-13.38c4.46-3.53,7.57-6.97,9.34-10.31,1.76-3.34,2.65-6.87,2.65-10.59,0-4.83-1.67-8.73-5.02-11.71-3.34-2.97-7.9-4.46-13.66-4.46s-10.45,1.49-14.08,4.46c-3.62,2.97-5.44,6.88-5.44,11.71,0,3.34.93,6.55,2.79,9.62,1.85,3.07,4.83,6.92,8.92,11.57l11.99,13.1,3.07,3.34,105.37,116.79h-39.3l-109.55-122.09ZM2764.56,1496.06l-19.51-22.3,30.38-34.29h39.86l-50.73,56.58Z"/>
        <path class="cls-1" d="M18,1798.05v-151.6h14.51v151.6h-14.51Z"/>
        <path class="cls-1" d="M73.88,1798.05v-151.6h20.57l85.77,132.98h1.08v-132.98h14.94v151.6h-20.79l-85.55-132.98h-1.08v132.98h-14.94Z"/>
        <path class="cls-1" d="M237.83,1798.05v-151.6h20.57l85.77,132.98h1.08v-132.98h14.94v151.6h-20.79l-85.55-132.98h-1.08v132.98h-14.94Z"/>
        <path class="cls-1" d="M469.13,1800.43c-14.15,0-27.07-3.39-38.77-10.18-11.7-6.79-20.94-16.13-27.72-28.05-6.79-11.91-10.18-25.23-10.18-39.96s3.39-28.05,10.18-39.96c6.79-11.91,16.03-21.26,27.72-28.05,11.7-6.79,24.62-10.18,38.77-10.18s27.29,3.39,38.98,10.18c11.7,6.79,20.93,16.13,27.72,28.05,6.78,11.91,10.18,25.23,10.18,39.96s-3.39,28.05-10.18,39.96c-6.79,11.91-16.03,21.26-27.72,28.05-11.7,6.79-24.69,10.18-38.98,10.18ZM469.13,1785.7c11.55,0,21.98-2.71,31.3-8.12,9.31-5.41,16.6-12.92,21.87-22.52,5.27-9.6,7.9-20.54,7.9-32.81s-2.64-23.21-7.9-32.81c-5.27-9.6-12.56-17.11-21.87-22.52-9.31-5.42-19.75-8.12-31.3-8.12s-21.77,2.71-31.08,8.12c-9.31,5.41-16.64,12.92-21.98,22.52-5.34,9.6-8.01,20.54-8.01,32.81s2.67,23.21,8.01,32.81c5.34,9.6,12.67,17.11,21.98,22.52,9.31,5.42,19.67,8.12,31.08,8.12Z"/>
        <path class="cls-1" d="M618.35,1798.05l-58.69-151.6h16.46l52.2,136.44h1.08l52.41-136.44h15.81l-58.69,151.6h-20.58Z"/>
        <path class="cls-1" d="M692.86,1798.05l58.48-151.6h19.06l58.48,151.6h-15.59l-51.98-136.01h-1.08l-51.98,136.01h-15.38ZM717.11,1754.95l4.12-14.08h79.05l4.33,14.08h-87.5Z"/>
        <path class="cls-1" d="M875.22,1798.05v-136.88h-51.55v-14.73h118.25v14.73h-51.55v136.88h-15.16Z"/>
        <path class="cls-1" d="M968.78,1798.05v-151.6h14.51v151.6h-14.51Z"/>
        <path class="cls-1" d="M1092.01,1800.43c-14.15,0-27.07-3.39-38.77-10.18-11.7-6.79-20.94-16.13-27.72-28.05-6.79-11.91-10.18-25.23-10.18-39.96s3.39-28.05,10.18-39.96c6.79-11.91,16.03-21.26,27.72-28.05,11.7-6.79,24.62-10.18,38.77-10.18s27.29,3.39,38.98,10.18c11.7,6.79,20.93,16.13,27.72,28.05,6.78,11.91,10.18,25.23,10.18,39.96s-3.39,28.05-10.18,39.96c-6.79,11.91-16.03,21.26-27.72,28.05-11.7,6.79-24.69,10.18-38.98,10.18ZM1092.01,1785.7c11.55,0,21.98-2.71,31.3-8.12,9.31-5.41,16.6-12.92,21.87-22.52,5.27-9.6,7.9-20.54,7.9-32.81s-2.64-23.21-7.9-32.81c-5.27-9.6-12.56-17.11-21.87-22.52-9.31-5.42-19.75-8.12-31.3-8.12s-21.77,2.71-31.08,8.12c-9.31,5.41-16.64,12.92-21.98,22.52-5.34,9.6-8.01,20.54-8.01,32.81s2.67,23.21,8.01,32.81c5.34,9.6,12.67,17.11,21.98,22.52,9.31,5.42,19.67,8.12,31.08,8.12Z"/>
        <path class="cls-1" d="M1201.16,1798.05v-151.6h20.57l85.77,132.98h1.08v-132.98h14.94v151.6h-20.79l-85.55-132.98h-1.08v132.98h-14.94Z"/>
        <path class="cls-1" d="M1420.33,1798.05v-151.6h98.54v14.73h-83.38v136.88h-15.16ZM1427.05,1731.77v-14.73h78.83v14.73h-78.83Z"/>
        <path class="cls-1" d="M1607.03,1800.43c-14.15,0-27.07-3.39-38.77-10.18-11.7-6.79-20.94-16.13-27.72-28.05-6.79-11.91-10.18-25.23-10.18-39.96s3.39-28.05,10.18-39.96c6.78-11.91,16.03-21.26,27.72-28.05,11.7-6.79,24.62-10.18,38.77-10.18s27.29,3.39,38.98,10.18c11.69,6.79,20.93,16.13,27.72,28.05,6.79,11.91,10.18,25.23,10.18,39.96s-3.39,28.05-10.18,39.96c-6.79,11.91-16.03,21.26-27.72,28.05-11.7,6.79-24.69,10.18-38.98,10.18ZM1607.03,1785.7c11.55,0,21.98-2.71,31.3-8.12,9.31-5.41,16.6-12.92,21.87-22.52,5.27-9.6,7.91-20.54,7.91-32.81s-2.64-23.21-7.91-32.81c-5.27-9.6-12.56-17.11-21.87-22.52-9.31-5.42-19.75-8.12-31.3-8.12s-21.77,2.71-31.08,8.12c-9.31,5.41-16.64,12.92-21.98,22.52-5.34,9.6-8.01,20.54-8.01,32.81s2.67,23.21,8.01,32.81c5.34,9.6,12.67,17.11,21.98,22.52,9.31,5.42,19.67,8.12,31.08,8.12Z"/>
        <path class="cls-1" d="M1770.97,1800.43c-11.7,0-21.95-2.53-30.75-7.58-8.81-5.05-15.56-12.2-20.25-21.44-4.69-9.24-7.04-20.07-7.04-32.49v-92.48h15.16v92.48c0,9.53,1.7,17.83,5.09,24.91,3.39,7.08,8.34,12.49,14.83,16.24,6.5,3.76,14.15,5.63,22.96,5.63,13.28,0,23.71-4.15,31.29-12.45,7.58-8.3,11.37-19.74,11.37-34.33v-92.48h15.16v92.48c0,12.42-2.35,23.25-7.04,32.49-4.69,9.24-11.41,16.39-20.14,21.44-8.74,5.06-18.95,7.58-30.65,7.58Z"/>
        <path class="cls-1" d="M1869.3,1798.05v-151.6h20.57l85.77,132.98h1.08v-132.98h14.94v151.6h-20.79l-85.55-132.98h-1.08v132.98h-14.94Z"/>
        <path class="cls-1" d="M2033.25,1798.05v-151.6h47.86c14.87,0,28.19,3.21,39.96,9.64,11.77,6.43,20.93,15.41,27.5,26.96,6.57,11.55,9.85,24.62,9.85,39.2s-3.29,27.65-9.85,39.2c-6.57,11.55-15.74,20.54-27.5,26.96-11.77,6.43-25.09,9.64-39.96,9.64h-47.86ZM2081.11,1783.32c12.13,0,22.85-2.52,32.16-7.58,9.31-5.05,16.57-12.24,21.77-21.55,5.2-9.31,7.8-19.96,7.8-31.95s-2.6-22.63-7.8-31.95c-5.2-9.31-12.45-16.49-21.77-21.55-9.31-5.05-20.03-7.58-32.16-7.58h-32.7v122.15h32.7Z"/>
        <path class="cls-1" d="M2167.31,1798.05l58.48-151.6h19.06l58.48,151.6h-15.59l-51.98-136.01h-1.08l-51.98,136.01h-15.38ZM2191.56,1754.95l4.11-14.08h79.05l4.33,14.08h-87.5Z"/>
        <path class="cls-1" d="M2349.67,1798.05v-136.88h-51.54v-14.73h118.25v14.73h-51.54v136.88h-15.16Z"/>
        <path class="cls-1" d="M2443.23,1798.05v-151.6h14.51v151.6h-14.51Z"/>
        <path class="cls-1" d="M2566.46,1800.43c-14.15,0-27.07-3.39-38.77-10.18-11.7-6.79-20.94-16.13-27.72-28.05-6.79-11.91-10.18-25.23-10.18-39.96s3.39-28.05,10.18-39.96c6.78-11.91,16.03-21.26,27.72-28.05,11.7-6.79,24.62-10.18,38.77-10.18s27.29,3.39,38.98,10.18c11.69,6.79,20.93,16.13,27.72,28.05,6.79,11.91,10.18,25.23,10.18,39.96s-3.39,28.05-10.18,39.96c-6.79,11.91-16.03,21.26-27.72,28.05-11.7,6.79-24.69,10.18-38.98,10.18ZM2566.46,1785.7c11.55,0,21.98-2.71,31.3-8.12,9.31-5.41,16.6-12.92,21.87-22.52,5.27-9.6,7.91-20.54,7.91-32.81s-2.64-23.21-7.91-32.81c-5.27-9.6-12.56-17.11-21.87-22.52-9.31-5.42-19.75-8.12-31.3-8.12s-21.77,2.71-31.08,8.12c-9.31,5.41-16.64,12.92-21.98,22.52-5.34,9.6-8.01,20.54-8.01,32.81s2.67,23.21,8.01,32.81c5.34,9.6,12.67,17.11,21.98,22.52,9.31,5.42,19.67,8.12,31.08,8.12Z"/>
        <path class="cls-1" d="M2675.61,1798.05v-151.6h20.57l85.77,132.98h1.08v-132.98h14.94v151.6h-20.79l-85.55-132.98h-1.08v132.98h-14.94Z"/>
      </g>
    </g>
  </g>
</svg>