<?xml version="1.0" encoding="UTF-8"?>
<svg id="Layer_2" data-name="Layer 2" xmlns="http://www.w3.org/2000/svg" viewBox="0 0 2069.74 1275.23">
  <defs>
    <style>
      .cls-1 {
        fill: #073343;
      }
    </style>
  </defs>
  <g id="Layer_1-2" data-name="Layer 1">
    <g>
      <path class="cls-1" d="M1009.8,753.5c12.1,18.34,23.76,37,34.97,55.95,229.49-268.02,583.16-416.81,951.5-374.29l-44.46,216.07c-38.24-13.65-77.89-24.82-118.79-33.23-288.51-59.36-573.03,31.09-772.84,218.19,75.13,133.91,128.16,281.91,154.1,439.04-31.46-151.26-94.47-290.96-181.81-411.92-4.96-6.88-10.01-13.69-15.14-20.46-11.44-15.11-23.28-29.91-35.51-44.38-6.09-7.24-12.3-14.41-18.62-21.5-198.57-223.24-488.02-363.86-810.3-363.86-51.88,0-102.93,3.66-152.89,10.69V149.72c409.48,36.11,766.58,254.67,989.49,573.88C1197.49,324.14,1599.01,41.51,2069.74,0v274.1c-49.95-7.05-101.01-10.71-152.89-10.71-379.44,0-713.36,194.92-907.06,490.11Z"/>
      <path class="cls-1" d="M1213.29,1275.2c-56.76-131.26-143.91-243.72-251.06-330.53-3.58-2.9-7.2-5.78-10.83-8.6-9.44-7.42-19.02-14.63-28.75-21.62-3.87-2.81-7.77-5.56-11.69-8.29-189.41-131.76-430.42-188.61-674.25-138.45-40.9,8.42-80.55,19.59-118.79,33.24l-44.46-216.08c319.81-36.91,628.52,70.38,854.54,274.71h0c4.72,4.26,9.39,8.56,14.04,12.92,10.59,9.9,20.98,20.03,31.15,30.36,4.12,4.17,8.21,8.38,12.25,12.62,97.16,101.74,175.43,223.19,227.85,359.73Z"/>
    </g>
  </g>
</svg>