<?xml version="1.0" encoding="UTF-8"?>
<svg id="Layer_2" data-name="Layer 2" xmlns="http://www.w3.org/2000/svg" viewBox="0 0 2866.83 1832.3">
  <defs>
    <style>
      .cls-1 {
        fill: #073343;
      }
    </style>
  </defs>
  <g id="Layer_1-2" data-name="Layer 1">
    <g>
      <g>
        <path class="cls-1" d="M1418.78,862.07c91.49,95.8,165.21,210.17,214.57,338.74-53.45-123.61-135.53-229.51-236.41-311.25-3.39-2.73-6.8-5.45-10.2-8.1-8.88-6.98-17.92-13.78-27.06-20.37-3.65-2.63-7.33-5.22-11.02-7.8-178.37-124.06-405.31-177.62-634.91-130.37-38.53,7.92-75.86,18.45-111.88,31.31l-41.86-203.49c301.15-34.76,591.87,66.29,804.69,258.7,4.45,4,8.86,8.06,13.22,12.16,9.96,9.33,19.76,18.86,29.33,28.59,3.88,3.92,7.73,7.88,11.53,11.88Z"/>
        <path class="cls-1" d="M1441.72,709.54c11.39,17.27,22.37,34.84,32.94,52.69,216.11-252.39,549.13-392.52,895.99-352.45l-41.86,203.45c-36.02-12.84-73.35-23.37-111.88-31.29-271.68-55.9-539.6,29.29-727.75,205.47,70.74,126.08,120.68,265.45,145.1,413.41-29.63-142.43-88.96-273.98-171.21-387.88-4.67-6.49-9.43-12.9-14.27-19.27-10.76-14.22-21.92-28.16-33.43-41.8-5.73-6.82-11.59-13.57-17.53-20.25-186.98-210.21-459.56-342.64-763.05-342.64-48.84,0-96.92,3.45-143.96,10.06V140.98c385.6,34,721.87,239.82,931.77,540.4C1618.47,305.23,1996.56,39.08,2439.83,0v258.11c-47.04-6.63-95.12-10.08-143.96-10.08-357.31,0-671.74,183.55-854.16,461.52Z"/>
      </g>
      <g>
        <path class="cls-1" d="M70.35,1565.38v-70.35L0,1366.8h34.89l51.35,95.03h1.42l51.35-95.03h34.32l-70.35,128.22v70.35h-32.62Z"/>
        <path class="cls-1" d="M281.13,1568.78c-19.29,0-36.83-4.49-52.62-13.47-15.79-8.98-28.23-21.32-37.3-37.02-9.08-15.7-13.62-33.09-13.62-52.2s4.54-36.5,13.62-52.2c9.08-15.7,21.51-28.04,37.3-37.02,15.79-8.98,33.33-13.47,52.62-13.47s36.83,4.49,52.62,13.47c15.79,8.98,28.23,21.32,37.3,37.02,9.08,15.7,13.62,33.1,13.62,52.2s-4.54,36.5-13.62,52.2c-9.08,15.7-21.52,28.04-37.3,37.02-15.79,8.98-33.33,13.47-52.62,13.47ZM281.13,1537.58c13.24,0,25.15-3.07,35.74-9.22,10.59-6.14,18.86-14.61,24.82-25.39,5.96-10.78,8.94-23.07,8.94-36.88s-2.98-26.1-8.94-36.88c-5.96-10.78-14.23-19.24-24.82-25.39-10.59-6.14-22.51-9.22-35.74-9.22s-25.15,3.08-35.74,9.22c-10.59,6.15-18.86,14.61-24.82,25.39-5.96,10.78-8.94,23.08-8.94,36.88s2.98,26.1,8.94,36.88c5.96,10.78,14.23,19.25,24.82,25.39,10.59,6.15,22.5,9.22,35.74,9.22Z"/>
        <path class="cls-1" d="M497.57,1568.78c-16.45,0-30.73-3.36-42.84-10.07-12.1-6.71-21.37-16.36-27.8-28.94-6.43-12.58-9.65-27.47-9.65-44.68v-118.29h32.62v118.29c0,11.16,1.84,20.67,5.53,28.51,3.69,7.85,9.12,13.81,16.31,17.87,7.19,4.07,15.79,6.1,25.81,6.1,15.13,0,26.81-4.58,35.03-13.76,8.23-9.17,12.34-22.08,12.34-38.72v-118.29h32.62v118.29c0,17.21-3.22,32.1-9.65,44.68-6.43,12.58-15.65,22.22-27.66,28.94-12.01,6.71-26.24,10.07-42.69,10.07Z"/>
        <path class="cls-1" d="M668.34,1565.38v-167.37h-63.83v-31.2h160.28v31.2h-63.83v167.37h-32.62Z"/>
        <path class="cls-1" d="M796,1565.38v-198.57h32.62v198.57h-32.62ZM809.9,1480.27v-31.2h131.63v31.2h-131.63ZM925.07,1565.38v-198.57h32.62v198.57h-32.62Z"/>
        <path class="cls-1" d="M1076.83,1565.38v-198.57h81.7c14.18,0,26.81,2.69,37.87,8.08,11.06,5.39,19.67,12.91,25.81,22.55,6.14,9.65,9.22,20.71,9.22,33.19s-3.08,23.54-9.22,33.19c-6.15,9.65-14.75,17.16-25.81,22.55-11.06,5.39-23.69,8.08-37.87,8.08h-68.37v-31.2h68.37c8.32,0,15.41-1.23,21.28-3.69,5.86-2.46,10.26-6.14,13.19-11.06,2.93-4.92,4.4-10.87,4.4-17.87,0-10.59-3.31-18.67-9.93-24.25-6.62-5.58-16.27-8.37-28.94-8.37h-49.08v167.37h-32.62ZM1197.68,1565.38l-57.59-85.95h36.88l58.72,85.95h-38.01Z"/>
        <path class="cls-1" d="M1272.57,1565.38v-198.57h140.42v31.2h-107.8v136.17h109.22v31.2h-141.84ZM1286.47,1480.27v-31.2h110.92v31.2h-110.92Z"/>
        <path class="cls-1" d="M1518.8,1568.78c-26.48,0-46.95-5.48-61.42-16.45-14.47-10.97-22.18-26.95-23.12-47.94h34.89c.38,11.35,4.73,19.95,13.05,25.81,8.32,5.86,20.52,8.79,36.59,8.79,11.72,0,21.37-2.27,28.94-6.81,7.56-4.54,11.35-10.97,11.35-19.29,0-6.62-2.13-12.01-6.38-16.17-4.26-4.16-9.55-7.47-15.89-9.93-6.34-2.46-15.18-5.2-26.52-8.23-14.18-3.78-25.81-7.56-34.89-11.35-9.08-3.78-16.79-9.5-23.12-17.16-6.34-7.66-9.5-17.73-9.5-30.21,0-10.97,3.02-20.75,9.08-29.36,6.05-8.6,14.51-15.27,25.39-20,10.87-4.72,23.5-7.09,37.87-7.09,23.07,0,41.27,5.11,54.61,15.32,13.33,10.21,20.66,24.68,21.98,43.4h-34.89c-.76-9.83-4.49-17.11-11.21-21.84-6.71-4.72-16.6-7.09-29.64-7.09-11.91,0-21.42,2.27-28.51,6.81-7.09,4.54-10.64,10.69-10.64,18.44,0,6.43,2.13,11.73,6.38,15.89,4.26,4.16,9.55,7.42,15.89,9.79,6.33,2.37,14.99,5.06,25.96,8.08,14.56,3.79,26.33,7.57,35.32,11.35,8.98,3.79,16.69,9.55,23.12,17.3,6.43,7.76,9.65,17.97,9.65,30.64,0,11.35-3.17,21.37-9.5,30.07-6.34,8.7-15.13,15.42-26.38,20.14-11.25,4.72-24.07,7.09-38.44,7.09Z"/>
        <path class="cls-1" d="M1631.42,1565.38v-198.57h140.42v31.2h-107.8v136.17h109.22v31.2h-141.84ZM1645.32,1480.27v-31.2h110.92v31.2h-110.92Z"/>
        <path class="cls-1" d="M1791.7,1565.38l74.04-198.57h39.15l73.76,198.57h-33.19l-59.86-164.53h-1.42l-59.86,164.53h-32.62ZM1824.6,1517.15l9.65-29.79h101.84l9.65,29.79h-121.13Z"/>
        <path class="cls-1" d="M2008.42,1565.38v-198.57h81.7c14.18,0,26.81,2.69,37.87,8.08,11.06,5.39,19.67,12.91,25.81,22.55,6.14,9.65,9.22,20.71,9.22,33.19s-3.08,23.54-9.22,33.19c-6.15,9.65-14.75,17.16-25.81,22.55-11.06,5.39-23.69,8.08-37.87,8.08h-68.37v-31.2h68.37c8.32,0,15.41-1.23,21.28-3.69,5.86-2.46,10.26-6.14,13.19-11.06,2.93-4.92,4.4-10.87,4.4-17.87,0-10.59-3.31-18.67-9.93-24.25-6.62-5.58-16.27-8.37-28.94-8.37h-49.08v167.37h-32.62ZM2129.27,1565.38l-57.59-85.95h36.88l58.72,85.95h-38.01Z"/>
        <path class="cls-1" d="M2290.68,1568.78c-19.29,0-36.83-4.49-52.62-13.47-15.79-8.98-28.23-21.32-37.3-37.02-9.08-15.7-13.62-33.09-13.62-52.2s4.54-36.5,13.62-52.2c9.08-15.7,21.51-28.04,37.3-37.02,15.79-8.98,33.33-13.47,52.62-13.47,15.89,0,30.35,3.12,43.4,9.36,13.05,6.24,23.97,14.8,32.77,25.67,8.79,10.88,15.08,23.03,18.86,36.45h-34.89c-3.22-8.13-7.71-15.22-13.48-21.28-5.77-6.05-12.58-10.73-20.42-14.04-7.85-3.31-16.59-4.96-26.24-4.96-13.24,0-25.15,3.08-35.74,9.22-10.59,6.15-18.86,14.61-24.82,25.39-5.96,10.78-8.94,23.08-8.94,36.88s2.98,26.1,8.94,36.88c5.96,10.78,14.23,19.25,24.82,25.39,10.59,6.15,22.5,9.22,35.74,9.22,10.02,0,19.15-1.84,27.37-5.53,8.23-3.69,15.22-8.79,20.99-15.32,5.77-6.53,10.16-13.95,13.19-22.27h34.89c-3.97,14.57-10.5,27.47-19.57,38.72-9.08,11.25-20.24,20-33.47,26.24-13.24,6.24-27.71,9.36-43.4,9.36Z"/>
        <path class="cls-1" d="M2422.59,1565.38v-198.57h32.62v198.57h-32.62ZM2436.49,1480.27v-31.2h131.63v31.2h-131.63ZM2551.66,1565.38v-198.57h32.62v198.57h-32.62Z"/>
        <path class="cls-1" d="M2741.16,1568.78c-11.35,0-21.28-2.27-29.79-6.81s-15.04-10.64-19.57-18.3c-4.54-7.66-6.81-16.03-6.81-25.11,0-6.81,1.04-13,3.12-18.58,2.08-5.58,5.53-11.25,10.35-17.02,4.82-5.77,11.67-12.34,20.57-19.72l19.01-15.89,15.6,23.54-18.72,16.17c-6.06,5.3-10.21,9.98-12.48,14.04-2.27,4.07-3.4,9.13-3.4,15.18s2.17,10.88,6.52,15.04c4.35,4.16,10.12,6.24,17.3,6.24,6.43,0,12.24-1.46,17.45-4.4,5.2-2.93,11.01-7.99,17.45-15.18l11.91-13.62,20.14,22.69-13.9,15.32c-8.89,9.83-17.5,16.69-25.81,20.57-8.32,3.87-17.97,5.82-28.94,5.82ZM2715.34,1441.13c-4.54-5.11-8.04-10.35-10.5-15.74-2.46-5.39-3.69-11.3-3.69-17.73,0-8.13,1.99-15.55,5.96-22.27,3.97-6.71,9.88-12.06,17.73-16.03,7.85-3.97,17.45-5.96,28.79-5.96,10.21,0,19.01,1.94,26.38,5.82,7.38,3.88,12.95,9.13,16.74,15.74,3.78,6.62,5.67,13.81,5.67,21.56s-1.56,14.47-4.68,20.71c-3.12,6.24-8.65,12.77-16.6,19.57l-22.41,19.57-15.89-23.26,16.17-13.62c4.54-3.59,7.7-7.09,9.5-10.5,1.79-3.4,2.69-6.99,2.69-10.78,0-4.92-1.7-8.89-5.11-11.92-3.4-3.02-8.04-4.54-13.9-4.54s-10.64,1.52-14.33,4.54c-3.69,3.03-5.53,7-5.53,11.92,0,3.4.94,6.67,2.84,9.79,1.89,3.12,4.92,7.05,9.08,11.77l12.2,13.33,3.12,3.4,107.23,118.86h-40l-111.49-124.25ZM2813.5,1522.54l-19.86-22.69,30.92-34.89h40.57l-51.63,57.59Z"/>
        <path class="cls-1" d="M18.32,1829.87v-154.29h14.77v154.29h-14.77Z"/>
        <path class="cls-1" d="M75.19,1829.87v-154.29h20.94l87.28,135.33h1.1v-135.33h15.21v154.29h-21.16l-87.06-135.33h-1.1v135.33h-15.21Z"/>
        <path class="cls-1" d="M242.04,1829.87v-154.29h20.94l87.28,135.33h1.1v-135.33h15.21v154.29h-21.16l-87.06-135.33h-1.1v135.33h-15.21Z"/>
        <path class="cls-1" d="M477.43,1832.3c-14.4,0-27.55-3.45-39.45-10.36-11.9-6.91-21.31-16.42-28.21-28.54-6.91-12.12-10.36-25.68-10.36-40.67s3.45-28.54,10.36-40.67c6.91-12.12,16.31-21.63,28.21-28.54,11.9-6.9,25.05-10.36,39.45-10.36s27.77,3.46,39.67,10.36c11.9,6.91,21.3,16.42,28.21,28.54,6.9,12.12,10.36,25.68,10.36,40.67s-3.45,28.54-10.36,40.67c-6.91,12.12-16.31,21.64-28.21,28.54-11.9,6.91-25.13,10.36-39.67,10.36ZM477.43,1817.31c11.75,0,22.37-2.75,31.85-8.27,9.48-5.51,16.9-13.15,22.26-22.92,5.36-9.77,8.04-20.9,8.04-33.39s-2.68-23.62-8.04-33.39c-5.37-9.77-12.78-17.41-22.26-22.92-9.48-5.51-20.1-8.27-31.85-8.27s-22.15,2.75-31.63,8.27c-9.48,5.51-16.94,13.15-22.37,22.92-5.44,9.77-8.16,20.9-8.16,33.39s2.72,23.62,8.16,33.39c5.43,9.77,12.89,17.41,22.37,22.92,9.48,5.51,20.02,8.27,31.63,8.27Z"/>
        <path class="cls-1" d="M629.3,1829.87l-59.73-154.29h16.75l53.12,138.86h1.1l53.34-138.86h16.09l-59.73,154.29h-20.94Z"/>
        <path class="cls-1" d="M705.12,1829.87l59.51-154.29h19.4l59.51,154.29h-15.87l-52.9-138.42h-1.1l-52.9,138.42h-15.65ZM729.81,1786.01l4.19-14.33h80.45l4.41,14.33h-89.05Z"/>
        <path class="cls-1" d="M890.71,1829.87v-139.3h-52.46v-14.99h120.34v14.99h-52.46v139.3h-15.43Z"/>
        <path class="cls-1" d="M985.92,1829.87v-154.29h14.77v154.29h-14.77Z"/>
        <path class="cls-1" d="M1111.34,1832.3c-14.4,0-27.55-3.45-39.45-10.36-11.9-6.91-21.31-16.42-28.21-28.54-6.91-12.12-10.36-25.68-10.36-40.67s3.45-28.54,10.36-40.67c6.91-12.12,16.31-21.63,28.21-28.54,11.9-6.9,25.05-10.36,39.45-10.36s27.77,3.46,39.67,10.36c11.9,6.91,21.3,16.42,28.21,28.54,6.91,12.12,10.36,25.68,10.36,40.67s-3.45,28.54-10.36,40.67c-6.91,12.12-16.31,21.64-28.21,28.54-11.9,6.91-25.13,10.36-39.67,10.36ZM1111.34,1817.31c11.75,0,22.37-2.75,31.85-8.27,9.48-5.51,16.9-13.15,22.26-22.92,5.36-9.77,8.04-20.9,8.04-33.39s-2.68-23.62-8.04-33.39c-5.37-9.77-12.78-17.41-22.26-22.92-9.48-5.51-20.1-8.27-31.85-8.27s-22.15,2.75-31.63,8.27c-9.48,5.51-16.94,13.15-22.37,22.92-5.44,9.77-8.16,20.9-8.16,33.39s2.72,23.62,8.16,33.39c5.43,9.77,12.89,17.41,22.37,22.92,9.48,5.51,20.02,8.27,31.63,8.27Z"/>
        <path class="cls-1" d="M1222.42,1829.87v-154.29h20.94l87.28,135.33h1.1v-135.33h15.21v154.29h-21.16l-87.06-135.33h-1.1v135.33h-15.21Z"/>
        <path class="cls-1" d="M1445.47,1829.87v-154.29h100.29v14.99h-84.86v139.3h-15.43ZM1452.3,1762.43v-14.99h80.23v14.99h-80.23Z"/>
        <path class="cls-1" d="M1635.47,1832.3c-14.4,0-27.55-3.45-39.45-10.36-11.9-6.91-21.31-16.42-28.21-28.54-6.91-12.12-10.36-25.68-10.36-40.67s3.45-28.54,10.36-40.67c6.91-12.12,16.31-21.63,28.21-28.54,11.9-6.9,25.05-10.36,39.45-10.36s27.77,3.46,39.67,10.36c11.9,6.91,21.3,16.42,28.21,28.54,6.91,12.12,10.36,25.68,10.36,40.67s-3.45,28.54-10.36,40.67c-6.91,12.12-16.31,21.64-28.21,28.54-11.9,6.91-25.13,10.36-39.67,10.36ZM1635.47,1817.31c11.75,0,22.37-2.75,31.85-8.27,9.48-5.51,16.9-13.15,22.26-22.92,5.36-9.77,8.04-20.9,8.04-33.39s-2.68-23.62-8.04-33.39c-5.37-9.77-12.78-17.41-22.26-22.92-9.48-5.51-20.1-8.27-31.85-8.27s-22.15,2.75-31.63,8.27c-9.48,5.51-16.94,13.15-22.37,22.92-5.44,9.77-8.16,20.9-8.16,33.39s2.72,23.62,8.16,33.39c5.43,9.77,12.89,17.41,22.37,22.92,9.48,5.51,20.02,8.27,31.63,8.27Z"/>
        <path class="cls-1" d="M1802.32,1832.3c-11.9,0-22.34-2.57-31.3-7.71-8.96-5.14-15.83-12.42-20.61-21.82-4.78-9.4-7.16-20.42-7.16-33.06v-94.12h15.43v94.12c0,9.7,1.73,18.15,5.18,25.35,3.45,7.2,8.49,12.71,15.1,16.53,6.61,3.82,14.4,5.73,23.36,5.73,13.52,0,24.13-4.22,31.85-12.67,7.71-8.45,11.57-20.09,11.57-34.93v-94.12h15.43v94.12c0,12.64-2.39,23.66-7.16,33.06-4.78,9.41-11.61,16.68-20.5,21.82-8.89,5.15-19.29,7.71-31.19,7.71Z"/>
        <path class="cls-1" d="M1902.38,1829.87v-154.29h20.94l87.28,135.33h1.1v-135.33h15.21v154.29h-21.16l-87.06-135.33h-1.1v135.33h-15.21Z"/>
        <path class="cls-1" d="M2069.23,1829.87v-154.29h48.71c15.13,0,28.69,3.27,40.67,9.81,11.97,6.54,21.3,15.69,27.99,27.44,6.68,11.76,10.03,25.05,10.03,39.89s-3.34,28.14-10.03,39.89c-6.69,11.76-16.02,20.91-27.99,27.44-11.98,6.54-25.53,9.81-40.67,9.81h-48.71ZM2117.94,1814.88c12.34,0,23.25-2.57,32.73-7.71,9.48-5.14,16.86-12.45,22.15-21.93,5.29-9.48,7.93-20.31,7.93-32.51s-2.64-23.03-7.93-32.51c-5.29-9.48-12.67-16.79-22.15-21.93-9.48-5.14-20.39-7.71-32.73-7.71h-33.28v124.31h33.28Z"/>
        <path class="cls-1" d="M2205.67,1829.87l59.51-154.29h19.4l59.51,154.29h-15.87l-52.9-138.42h-1.1l-52.9,138.42h-15.65ZM2230.35,1786.01l4.19-14.33h80.45l4.41,14.33h-89.05Z"/>
        <path class="cls-1" d="M2391.25,1829.87v-139.3h-52.46v-14.99h120.34v14.99h-52.46v139.3h-15.43Z"/>
        <path class="cls-1" d="M2486.47,1829.87v-154.29h14.77v154.29h-14.77Z"/>
        <path class="cls-1" d="M2611.88,1832.3c-14.4,0-27.55-3.45-39.45-10.36-11.9-6.91-21.31-16.42-28.21-28.54-6.91-12.12-10.36-25.68-10.36-40.67s3.45-28.54,10.36-40.67c6.91-12.12,16.31-21.63,28.21-28.54,11.9-6.9,25.05-10.36,39.45-10.36s27.77,3.46,39.67,10.36c11.9,6.91,21.3,16.42,28.21,28.54,6.91,12.12,10.36,25.68,10.36,40.67s-3.45,28.54-10.36,40.67c-6.91,12.12-16.31,21.64-28.21,28.54-11.9,6.91-25.13,10.36-39.67,10.36ZM2611.88,1817.31c11.75,0,22.37-2.75,31.85-8.27,9.48-5.51,16.9-13.15,22.26-22.92,5.36-9.77,8.04-20.9,8.04-33.39s-2.68-23.62-8.04-33.39c-5.37-9.77-12.78-17.41-22.26-22.92-9.48-5.51-20.1-8.27-31.85-8.27s-22.15,2.75-31.63,8.27c-9.48,5.51-16.94,13.15-22.37,22.92-5.44,9.77-8.16,20.9-8.16,33.39s2.72,23.62,8.16,33.39c5.43,9.77,12.89,17.41,22.37,22.92,9.48,5.51,20.02,8.27,31.63,8.27Z"/>
        <path class="cls-1" d="M2722.97,1829.87v-154.29h20.94l87.28,135.33h1.1v-135.33h15.21v154.29h-21.16l-87.06-135.33h-1.1v135.33h-15.21Z"/>
      </g>
    </g>
  </g>
</svg>